<?xml version="1.0" encoding="UTF-8"?>
<svg width="2044px" height="2007px" viewBox="0 0 2044 2007" version="1.1" xmlns="http://www.w3.org/2000/svg"
>
    <!-- Generator: Sketch 47.1 (45422) - http://www.bohemiancoding.com/sketch -->
    <title>Group</title>
    <desc>Created with Sketch.</desc>
    <defs></defs>
    <g id="Symbols" stroke="none" stroke-width="1" fill="none" fill-rule="evenodd" opacity="0.679630888">
        <g id="Background" transform="translate(-321.000000, -251.000000)" fill-rule="nonzero" fill="#FFFFFF">
            <g id="Group"
               transform="translate(1319.583272, 1280.052184) rotate(24.000000) translate(-1319.583272, -1280.052184) translate(296.083272, 334.552184)">
                <path d="M1943.27928,1171.7049 C1932.90721,1171.7049 1922.53514,1176.54413 1912.16306,1181.38336 L1912.16306,1181.38336 C1824.00045,1234.61492 1720.27973,1273.32878 1611.37297,1292.68571 C1149.81577,1374.95266 703.816666,1089.43794 615.654053,658.746248 C574.165765,465.176947 615.654053,271.607646 714.188738,111.912973 L714.188738,111.912973 C724.56081,102.234508 729.746846,82.8775779 724.56081,63.5206478 C714.188738,19.9675552 672.70045,-4.22860746 626.026125,0.610625066 C620.840089,0.610625066 610.468017,5.44985759 605.281981,5.44985759 C180.027026,194.179926 -74.08874,634.550085 19.2599087,1089.43794 C128.166666,1626.59275 683.072522,1975.01749 1258.72252,1873.39361 C1626.93108,1810.48359 1912.16306,1573.36119 2041.81396,1273.32878 C2047,1258.81108 2047,1244.29338 2047,1229.77569 C2031.44189,1191.06183 1989.9536,1162.02643 1943.27928,1171.7049 Z"
                      id="XMLID_46_" opacity="0.0438179348"></path>
                <path d="M1771.06572,227.064609 C1579.34668,154.406308 1460.16997,386.912872 1460.16997,386.912872 C1460.16997,386.912872 1340.99327,159.250195 1149.27423,227.064609 C1024.91593,270.65959 947.19199,406.288419 1045.64231,556.448908 C1138.91103,701.76551 1335.81168,866.457659 1418.71721,934.272073 C1434.262,948.803734 1454.98838,953.64762 1480.89636,943.959847 C1491.25955,939.11596 1496.44115,939.11596 1501.62274,934.272073 C1589.70987,866.457659 1786.61051,701.76551 1874.69764,556.448908 C1967.96636,406.288419 1890.24243,270.65959 1771.06572,227.064609 Z"
                      id="XMLID_44_" opacity="0.0438179348"></path>
            </g>
        </g>
    </g>
</svg>
