<svg xmlns="http://www.w3.org/2000/svg" width="161" height="145" viewBox="0 0 161 145">
    <path fill="#EEE" fill-rule="evenodd"
          d="M159.24 138.82c-27.285-12.056-54.562-18.786-81.07-20.003-.132-.006-.261 0-.388.012-8.605-9.085-12.397-20.585-11.273-34.275.628-7.649 2.713-14.207 4.182-18.04 2.347 5.351 4.347 13.1 4.174 23.846a2.744 2.744 0 0 0 4.924 1.71c.713-.934 15.582-20.72 9.033-36.55 9.907 2.298 24.875 7.583 27.975 16.624a2.743 2.743 0 0 0 5.34-.841c.004-.28.07-6.922-4.37-14.928-3.757-6.77-11.57-15.841-27.632-21.809 5.943-7.583 15.22-9.273 22.307-9.273 4.657 0 8.051.752 8.081.758a2.75 2.75 0 0 0 3.361-2.675 2.74 2.74 0 0 0-1.228-2.288c-7.162-5.33-15.564-8.033-24.974-8.033-10.768 0-19.73 3.557-23.042 5.063-7.648-4.061-15.177-6.12-22.398-6.12-16.743 0-25.98 10.903-26.365 11.367a2.744 2.744 0 0 0 3.232 4.257c.023-.01 2.416-1.033 6.2-1.033 4.989 0 12.19 1.791 19.713 9.675-5.65.813-14.318 3.231-20.275 10.355-5.963 7.13-7.828 17.193-5.542 29.908a2.743 2.743 0 0 0 2.395 2.239 2.748 2.748 0 0 0 2.833-1.656c.022-.051 2.23-5.164 7.191-10.172 3.255-3.286 6.884-5.755 10.854-7.411-2.793 3.595-5.98 8.531-8.431 14.683-3.19 8.008-4.46 16.41-3.777 24.976.552 6.92 2.397 13.942 5.488 20.984-27.818 3.708-43.696 12.727-44.386 13.125a2.744 2.744 0 1 0 2.745 4.752c.163-.094 16.277-9.248 44.148-12.665a91.691 91.691 0 0 0 3.516 6.091 2.742 2.742 0 0 0 3.783.863 2.744 2.744 0 0 0 .864-3.783 84.38 84.38 0 0 1-4.863-8.833h7.434a2.744 2.744 0 1 0 0-5.488h-9.755c-2.428-6.504-3.663-12.915-3.697-19.21h7.277a2.744 2.744 0 1 0 0-5.488h-7c.475-4.422 1.548-8.783 3.235-13.073a53.321 53.321 0 0 1 3.267-6.821h4.615a2.744 2.744 0 1 0 0-5.489h-1.06c2.712-3.698 5.15-6.084 6.1-6.96a36.58 36.58 0 0 1 2.437-.155c.634.599 1.692 1.714 2.897 3.423-.242.481-3.698 7.472-5.463 17.413h-6.283a2.744 2.744 0 0 0 0 5.488h5.538c-.018.185-.037.369-.053.556-.552 6.488-.064 12.617 1.421 18.31h-7.25a2.744 2.744 0 1 0 0 5.488h9.048c2.988 7.52 7.898 14.141 14.65 19.64a2.74 2.74 0 0 0 4.41-2.724c24.124 1.8 48.886 8.25 73.688 19.21a2.745 2.745 0 0 0 2.219-5.02zM67.03 52.055a2.745 2.745 0 0 0-1.609-.521c-10.72 0-20.353 4.047-27.858 11.705a44.075 44.075 0 0 0-3.8 4.436c-.185-7.303 1.553-13.181 5.195-17.536 6.997-8.368 18.944-8.791 21.268-8.791.183 0 .29.003.307.003a2.744 2.744 0 0 0 2.274-4.418c-9.09-11.791-18.46-15.188-25.33-15.745 3.645-1.974 8.597-3.702 14.765-3.702 6.669 0 13.728 2.055 20.98 6.108a2.751 2.751 0 0 0 2.612.036c.098-.05 9.883-5.087 21.847-5.087 3.724 0 7.261.481 10.594 1.438-8.652.753-18.773 4.143-24.78 14.655a2.745 2.745 0 0 0 1.545 3.975c13.249 4.246 22.592 11.024 27.769 20.146.179.315.349.627.512.937-11.292-8.056-28.688-10.606-29.672-10.744a2.743 2.743 0 0 0-2.47 4.498c7.03 8.242 2.828 20.226-1.186 27.89-2.101-21.163-12.466-28.923-12.963-29.283zM111.991 92.9a2.744 2.744 0 0 0 2.408 4.932c3.906-1.908 8.183-2.036 12.139-.385a2.74 2.74 0 0 0 1.788.663h.266a2.74 2.74 0 0 0 1.788-.663c3.956-1.651 8.233-1.523 12.139.385a2.744 2.744 0 0 0 2.408-4.932c-5.299-2.588-11.093-2.787-16.468-.598-5.375-2.19-11.169-1.99-16.468.598zM8.408 7.034c3.906-1.908 8.182-2.036 12.138-.385a2.74 2.74 0 0 0 1.789.664h.265a2.74 2.74 0 0 0 1.789-.664c3.956-1.65 8.232-1.523 12.139.385a2.744 2.744 0 0 0 2.408-4.932c-5.3-2.587-11.094-2.787-16.469-.597C17.092-.685 11.297-.485 6 2.102a2.744 2.744 0 0 0 2.409 4.932zM75.639 136.87h-2.058a2.744 2.744 0 1 0 0 5.489h2.058a2.744 2.744 0 0 0 0-5.489zm16.75 0H87.82a2.744 2.744 0 1 0 0 5.489h4.567a2.744 2.744 0 0 0 0-5.489zm33.498 0h-4.568a2.744 2.744 0 1 0 0 5.489h4.568a2.744 2.744 0 0 0 0-5.489zm-16.75 0h-4.567a2.744 2.744 0 1 0 0 5.489h4.568a2.744 2.744 0 0 0 0-5.489z"/>
</svg>
